<svg width="133" height="39" viewBox="0 0 133 39" fill="none" xmlns="http://www.w3.org/2000/svg">
<path d="M24.2388 3.96224C23.709 2.22652 21.8549 1.2919 20.1332 1.82596C18.4115 2.36003 17.4845 4.22927 18.0142 5.965L26.4902 32.2679C27.0862 33.8701 28.8079 34.8047 30.4634 34.3374C32.1851 33.8033 33.2446 32.0009 32.7148 30.2651C32.7148 30.1984 24.2388 3.96224 24.2388 3.96224Z" fill="#AEC0CE"/>
<path d="M11.1275 8.3016C10.5977 6.56587 8.74357 5.63125 7.02188 6.16532C5.30019 6.69939 4.37313 8.56863 4.90288 10.3044L13.3789 36.6073C13.9749 38.2095 15.6966 39.1441 17.352 38.6768C19.0737 38.1427 20.1332 36.3402 19.6035 34.6045C19.6035 34.5377 11.1275 8.3016 11.1275 8.3016Z" fill="#AEC0CE"/>
<path d="M34.9663 25.7922C36.688 25.2581 37.6151 23.3889 37.0853 21.6532C36.5556 19.9174 34.7014 18.9828 32.9798 19.5169L6.82328 27.9952C5.23403 28.5961 4.30697 30.3318 4.7705 32.0007C5.30025 33.7365 7.08816 34.8046 8.80985 34.2705C8.94229 34.2705 34.9663 25.7922 34.9663 25.7922Z" fill="#AEC0CE"/>
<path d="M12.2532 33.2025C13.9749 32.6684 16.1601 31.9341 18.4778 31.133C17.9481 29.3973 17.2196 27.1942 16.425 24.8577L10.2004 26.9272L12.2532 33.2025Z" fill="#AEC0CE"/>
<path d="M25.4307 28.8631C27.8146 28.062 29.9998 27.3944 31.6553 26.7936C31.1255 25.0579 30.3971 22.8549 29.6025 20.5183L23.3779 22.5878L25.4307 28.8631Z" fill="#AEC0CE"/>
<path d="M30.6621 12.5073C32.3838 11.9732 33.3108 10.104 32.7811 8.36825C32.2513 6.63252 30.3972 5.6979 28.6755 6.23197L2.58525 14.7771C0.995994 15.3779 0.0689291 17.1136 0.532462 18.7826C1.06221 20.5851 2.85012 21.6532 4.57182 21.0524C4.63803 21.0524 30.6621 12.5073 30.6621 12.5073Z" fill="#AEC0CE"/>
<path d="M8.01519 19.9176C9.73688 19.3835 11.9221 18.6492 14.2398 17.8481C13.4451 15.4448 12.7829 13.2417 12.187 11.5728L5.9624 13.6423L8.01519 19.9176Z" fill="#AEC0CE"/>
<path d="M21.1265 15.6449C23.5104 14.8438 25.6956 14.1762 27.3511 13.5754C26.5565 11.172 25.8943 8.96901 25.2983 7.30005L19.0737 9.36957L21.1265 15.6449Z" fill="#AEC0CE"/>
<path d="M61.3876 10.9052C62.5134 11.4392 62.6458 11.773 61.7187 13.5087C60.7917 15.3112 60.593 15.378 59.4011 14.9107C57.9443 14.3098 56.1564 13.8425 54.9644 13.8425C53.0441 13.8425 51.7859 14.5101 51.7859 15.5783C51.7859 19.0497 62.8445 17.1805 62.8445 24.6574C62.8445 28.3959 59.666 30.866 54.8982 30.866C52.3819 30.866 49.2696 29.9981 47.1506 28.93C46.0911 28.3959 46.0249 28.0621 46.9519 26.2596C47.7466 24.7242 48.0114 24.5239 49.1371 24.9912C50.9913 25.7923 53.2427 26.3932 54.832 26.3932C56.6199 26.3932 57.7456 25.6588 57.7456 24.5907C57.7456 21.186 46.4884 22.7882 46.4884 15.5783C46.4884 11.773 49.6669 9.16943 54.3684 9.16943C56.6199 9.36971 59.4673 10.0373 61.3876 10.9052Z" fill="#AEC0CE"/>
<path d="M70.3272 2.09292V29.8645C70.3272 30.2651 69.8637 30.7324 69.2677 30.7324H66.3541C65.6919 30.7324 65.2946 30.2651 65.2946 29.8645V2.09292C65.2946 0.690991 65.6919 0.624232 67.8109 0.624232C70.1948 0.557473 70.3272 0.757749 70.3272 2.09292Z" fill="#AEC0CE"/>
<path fill-rule="evenodd" clip-rule="evenodd" d="M90.855 29.5975V17.6477C90.855 12.4405 87.3454 9.36963 81.783 9.36963C79.2667 9.36963 76.4855 10.1707 74.499 11.5059C73.4395 12.1735 73.4395 12.5073 74.499 14.1762C75.6247 15.8452 75.8233 15.912 76.8829 15.3111C78.2072 14.51 79.8627 13.976 81.2533 13.976C84.1669 13.976 85.8886 15.3111 85.8886 17.5142V18.9161C84.498 18.3153 82.7763 17.9815 80.9222 17.9815C75.9558 17.9815 72.7111 20.6518 72.7111 24.6574C72.7111 28.3958 75.6247 30.9327 79.9289 30.9327C82.1804 30.9327 84.4318 29.998 85.9548 28.2623L85.8886 29.5307C85.8224 30.1983 86.2859 30.6656 86.9481 30.6656H89.7955C90.3915 30.6656 90.855 30.2651 90.855 29.5975ZM80.5249 26.9271C78.737 26.9271 77.545 25.9925 77.545 24.5906C77.545 22.8549 79.333 21.5197 81.9817 21.5197C83.2399 21.5197 84.6967 21.72 85.8224 22.1873V24.0565C84.6967 25.859 82.7101 26.9271 80.5249 26.9271Z" fill="#AEC0CE"/>
<path d="M110.522 10.9719C111.582 11.5728 111.582 11.9066 110.456 13.709C109.396 15.378 109.198 15.5115 108.006 14.9107C107.145 14.4434 105.688 14.0428 104.562 14.0428C100.92 14.0428 98.5364 16.4461 98.5364 20.1179C98.5364 23.9231 100.92 26.4599 104.562 26.4599C105.82 26.4599 107.41 25.9926 108.403 25.3918C109.463 24.791 109.661 24.791 110.787 26.4599C111.78 27.9954 111.78 28.3292 110.853 28.9968C109.264 30.1317 106.681 30.9995 104.43 30.9995C97.7418 30.9995 93.2389 26.6602 93.2389 20.1846C93.2389 13.709 97.7418 9.43648 104.496 9.43648C106.615 9.36972 108.999 10.0373 110.522 10.9719Z" fill="#AEC0CE"/>
<path d="M132.44 28.0621C133.301 29.1302 132.97 29.5308 130.851 30.2651C128.732 31.0662 128.401 30.9994 127.673 29.9981L121.647 21.9203L118.932 24.5239V29.7978C118.932 30.1983 118.468 30.6656 117.872 30.6656H114.959C114.296 30.6656 113.899 30.1983 113.899 29.7978V2.09296C113.899 0.691026 114.296 0.624268 116.415 0.624268C118.866 0.624268 118.932 0.824543 118.932 2.09296V17.848L127.143 9.90372C128.07 9.03585 128.534 9.10261 130.189 10.1708C131.977 11.3056 132.109 11.6394 131.249 12.5073L125.156 18.5156L132.44 28.0621Z" fill="#AEC0CE"/>
</svg>
