<svg width="116" height="32" viewBox="0 0 116 32" fill="none" xmlns="http://www.w3.org/2000/svg">
<path fill-rule="evenodd" clip-rule="evenodd" d="M12.8895 30.1833L12.8895 30.1833L12.8894 30.1833C12.2208 30.2519 11.5421 30.3214 10.8472 30.407L5.27149 14.2766V31.0934C3.52909 31.265 1.96093 31.4938 0.276611 31.7798V0.948975H4.92301L11.2537 18.4522V0.948975H16.1905V29.7778C15.0997 29.9568 14.009 30.0686 12.8897 30.1833L12.8896 30.1833L12.8896 30.1833L12.8895 30.1833ZM29.2632 12.2153H29.2632L29.2633 12.2153C30.4173 12.1874 31.5444 12.1602 32.3949 12.1602V16.965C30.2459 16.965 27.6904 16.965 25.8318 17.0794V24.2294C26.7369 24.1748 27.6478 24.1144 28.5628 24.0538L28.5629 24.0538L28.5631 24.0538H28.5632H28.5632H28.5632H28.5632C30.5251 23.9238 32.5054 23.7926 34.4857 23.7146V28.3478L20.9531 29.3774V0.948975H34.4857V5.75377H25.8318V12.2746C26.8129 12.2746 28.0527 12.2446 29.263 12.2153H29.2631H29.2631H29.2632H29.2632ZM47.5537 5.81097H52.6067C52.6067 5.81097 52.6067 0.948975 52.6648 0.948975H37.6221V5.81097H42.675V28.0046C44.2432 27.9474 45.9275 27.9474 47.5537 27.9474V5.81097ZM60.5637 11.9314H67.2429V16.7362H60.5637V27.6614H55.743V0.948975H69.3918V5.75377H60.5637V11.9314ZM82.4136 23.6585C80.734 23.5613 79.0414 23.4633 77.3488 23.4286V0.948975H72.4701V27.9474C76.9422 28.0618 81.2982 28.2906 85.6542 28.5766V23.829C84.5818 23.784 83.5004 23.7214 82.4136 23.6585ZM91.4262 29.0252L91.4265 29.0252C92.4731 29.0876 93.5358 29.1508 94.5985 29.263V0.948975H89.7779V28.9198C90.3212 28.9594 90.8714 28.9922 91.4262 29.0252ZM109.757 15.5922L115.972 0.948975H110.571L107.144 9.01418L103.949 0.948975H98.7222L104.414 15.4206L98.1414 29.4918C98.8384 29.5833 99.5353 29.6565 100.232 29.7297C101.278 29.8396 102.323 29.9494 103.369 30.121L106.97 21.9414L110.454 30.8646C111.105 30.9647 111.749 31.0719 112.391 31.1787C113.581 31.3769 114.764 31.5739 115.972 31.7226L109.757 15.5922Z" fill="#AEC0CE"/>
</svg>
