<svg width="117" height="39" viewBox="0 0 117 39" fill="none" xmlns="http://www.w3.org/2000/svg">
<path d="M29.4586 13.552H15.9166V17.545H25.5465C25.065 23.1715 20.3704 25.652 15.9768 25.652C10.3193 25.652 5.38397 21.175 5.38397 14.9435C5.38397 8.83299 10.0785 4.11399 15.9768 4.11399C20.551 4.11399 23.1992 7.01799 23.1992 7.01799L25.9678 4.11399C25.9678 4.11399 22.3566 0.120991 15.7962 0.120991C7.43032 0.0604905 0.990356 7.13899 0.990356 14.8225C0.990356 22.3245 7.0692 29.645 16.037 29.645C23.9214 29.645 29.6993 24.2605 29.6993 16.214C29.6993 14.52 29.4586 13.552 29.4586 13.552Z" fill="#AEC0CE"/>
<path fill-rule="evenodd" clip-rule="evenodd" d="M30.9633 20.0254C30.9633 14.9434 34.9356 10.5874 40.4727 10.5874C45.0469 10.5874 49.9822 13.8544 50.0424 20.1464C50.0424 25.7124 45.8293 29.6449 40.5931 29.6449C34.8152 29.6449 30.9633 25.2284 30.9633 20.0254ZM45.8293 20.1464C45.8293 16.6374 43.2413 14.3989 40.5329 14.3989C37.4634 14.3989 35.1161 16.8189 35.1763 20.0859C35.1763 23.4739 37.5236 25.8939 40.5329 25.8939C43.3015 25.8939 45.8293 23.6554 45.8293 20.1464Z" fill="#AEC0CE"/>
<path fill-rule="evenodd" clip-rule="evenodd" d="M51.6674 20.0254C51.6674 14.9434 55.6397 10.5874 61.1768 10.5874C65.751 10.5874 70.6863 13.8544 70.7465 20.1464C70.7465 25.7124 66.5334 29.6449 61.2972 29.6449C55.5193 29.6449 51.6674 25.2284 51.6674 20.0254ZM66.5334 20.1464C66.5334 16.6374 63.9454 14.3989 61.237 14.3989C58.1675 14.3989 55.8202 16.8189 55.8804 20.0859C55.8804 23.4739 58.2277 25.8939 61.237 25.8939C64.0056 25.8939 66.5334 23.6554 66.5334 20.1464Z" fill="#AEC0CE"/>
<path fill-rule="evenodd" clip-rule="evenodd" d="M72.3716 20.1465C72.3716 15.1249 76.3439 10.6479 81.4597 10.6479C83.6867 10.6479 85.3719 11.4949 86.4552 12.8259V11.1924H90.4275V28.3139C90.4275 35.0294 86.5756 38.236 81.5199 38.236C76.8856 38.236 74.2976 35.3925 73.0336 32.67L76.705 31.1574C77.2467 32.3675 78.6912 34.5455 81.5801 34.5455C84.5894 34.5455 86.5756 32.549 86.5756 29.2819V27.4065C85.4321 28.677 84.0478 29.7055 81.3394 29.7055C77.0059 29.7055 72.3716 25.8335 72.3716 20.1465ZM86.8765 20.2069C86.8765 16.5769 84.2885 14.3989 81.8209 14.3989C79.1727 14.3989 76.5846 16.5164 76.5245 20.2674C76.5245 23.716 79.0523 25.9544 81.7607 25.9544C84.3487 25.9544 86.8765 23.9579 86.8765 20.2069Z" fill="#AEC0CE"/>
<path fill-rule="evenodd" clip-rule="evenodd" d="M99.3953 20.0859C99.3953 14.3989 103.428 10.5874 108.243 10.5874C111.974 10.5874 114.803 13.1284 116.067 16.0324L116.729 17.6054L104.03 22.9294C104.812 24.3814 106.016 25.8334 108.664 25.8334C111.011 25.8334 112.456 24.5629 113.298 23.2319L116.609 25.4704C115.164 27.4064 112.636 29.6449 108.664 29.6449C103.909 29.6449 99.3953 26.0754 99.3953 20.0859ZM111.914 16.3349C111.312 15.1854 110.109 14.2779 108.363 14.2779C105.655 14.2779 103.007 17.1214 103.488 19.9044L111.914 16.3349Z" fill="#AEC0CE"/>
<path d="M93.3767 29.1006H97.5296V1.02856H93.3767V29.1006Z" fill="#AEC0CE"/>
</svg>
