<svg width="15" height="15" viewBox="0 0 15 15" fill="none" xmlns="http://www.w3.org/2000/svg">
<path d="M13.3334 0.333374H1.30212C0.770874 0.333374 0.333374 0.802124 0.333374 1.36462V13.3334C0.333374 13.8959 0.770874 14.3334 1.30212 14.3334H13.3334C13.8646 14.3334 14.3334 13.8959 14.3334 13.3334V1.36462C14.3334 0.802124 13.8646 0.333374 13.3334 0.333374ZM4.55212 12.3334H2.48962V5.67712H4.55212V12.3334ZM3.52087 4.73962C2.83337 4.73962 2.30212 4.20837 2.30212 3.55212C2.30212 2.89587 2.83337 2.33337 3.52087 2.33337C4.17712 2.33337 4.70837 2.89587 4.70837 3.55212C4.70837 4.20837 4.17712 4.73962 3.52087 4.73962ZM12.3334 12.3334H10.2396V9.08337C10.2396 8.33337 10.2396 7.33337 9.17712 7.33337C8.08337 7.33337 7.92712 8.17712 7.92712 9.05212V12.3334H5.86462V5.67712H7.83337V6.58337H7.86462C8.14587 6.05212 8.83337 5.48962 9.83337 5.48962C11.9271 5.48962 12.3334 6.89587 12.3334 8.67712V12.3334Z" fill="#D3D6D8"/>
</svg>
