<svg width="17" height="14" viewBox="0 0 17 14" fill="none" xmlns="http://www.w3.org/2000/svg">
<path d="M14.6771 4.08337C15.3021 3.61462 15.8646 3.05212 16.3021 2.39587C15.7396 2.64587 15.0834 2.83337 14.4271 2.89587C15.1146 2.48962 15.6146 1.86462 15.8646 1.08337C15.2396 1.45837 14.5209 1.73962 13.8021 1.89587C13.1771 1.23962 12.3334 0.864624 11.3959 0.864624C9.58337 0.864624 8.11462 2.33337 8.11462 4.14587C8.11462 4.39587 8.14587 4.64587 8.20837 4.89587C5.48962 4.73962 3.05212 3.42712 1.42712 1.45837C1.14587 1.92712 0.989624 2.48962 0.989624 3.11462C0.989624 4.23962 1.55212 5.23962 2.45837 5.83337C1.92712 5.80212 1.39587 5.67712 0.958374 5.42712V5.45837C0.958374 7.05212 2.08337 8.36462 3.58337 8.67712C3.33337 8.73962 3.02087 8.80212 2.73962 8.80212C2.52087 8.80212 2.33337 8.77087 2.11462 8.73962C2.52087 10.0521 3.73962 10.9896 5.17712 11.0209C4.05212 11.8959 2.64587 12.4271 1.11462 12.4271C0.833374 12.4271 0.583374 12.3959 0.333374 12.3646C1.77087 13.3021 3.48962 13.8334 5.36462 13.8334C11.3959 13.8334 14.6771 8.86462 14.6771 4.52087C14.6771 4.36462 14.6771 4.23962 14.6771 4.08337Z" fill="#D3D6D8"/>
</svg>
