<svg width="15" height="15" viewBox="0 0 15 15" fill="none" xmlns="http://www.w3.org/2000/svg">
<path d="M7.33337 3.73962C9.30212 3.73962 10.9271 5.36462 10.9271 7.33337C10.9271 9.33337 9.30212 10.9271 7.33337 10.9271C5.33337 10.9271 3.73962 9.33337 3.73962 7.33337C3.73962 5.36462 5.33337 3.73962 7.33337 3.73962ZM7.33337 9.67712C8.61462 9.67712 9.64587 8.64587 9.64587 7.33337C9.64587 6.05212 8.61462 5.02087 7.33337 5.02087C6.02087 5.02087 4.98962 6.05212 4.98962 7.33337C4.98962 8.64587 6.05212 9.67712 7.33337 9.67712ZM11.8959 3.61462C11.8959 4.08337 11.5209 4.45837 11.0521 4.45837C10.5834 4.45837 10.2084 4.08337 10.2084 3.61462C10.2084 3.14587 10.5834 2.77087 11.0521 2.77087C11.5209 2.77087 11.8959 3.14587 11.8959 3.61462ZM14.2709 4.45837C14.3334 5.61462 14.3334 9.08337 14.2709 10.2396C14.2084 11.3646 13.9584 12.3334 13.1459 13.1771C12.3334 13.9896 11.3334 14.2396 10.2084 14.3021C9.05212 14.3646 5.58337 14.3646 4.42712 14.3021C3.30212 14.2396 2.33337 13.9896 1.48962 13.1771C0.677124 12.3334 0.427124 11.3646 0.364624 10.2396C0.302124 9.08337 0.302124 5.61462 0.364624 4.45837C0.427124 3.33337 0.677124 2.33337 1.48962 1.52087C2.33337 0.708374 3.30212 0.458374 4.42712 0.395874C5.58337 0.333374 9.05212 0.333374 10.2084 0.395874C11.3334 0.458374 12.3334 0.708374 13.1459 1.52087C13.9584 2.33337 14.2084 3.33337 14.2709 4.45837ZM12.7709 11.4584C13.1459 10.5521 13.0521 8.36462 13.0521 7.33337C13.0521 6.33337 13.1459 4.14587 12.7709 3.20837C12.5209 2.61462 12.0521 2.11462 11.4584 1.89587C10.5209 1.52087 8.33337 1.61462 7.33337 1.61462C6.30212 1.61462 4.11462 1.52087 3.20837 1.89587C2.58337 2.14587 2.11462 2.61462 1.86462 3.20837C1.48962 4.14587 1.58337 6.33337 1.58337 7.33337C1.58337 8.36462 1.48962 10.5521 1.86462 11.4584C2.11462 12.0834 2.58337 12.5521 3.20837 12.8021C4.11462 13.1771 6.30212 13.0834 7.33337 13.0834C8.33337 13.0834 10.5209 13.1771 11.4584 12.8021C12.0521 12.5521 12.5521 12.0834 12.7709 11.4584Z" fill="#D3D6D8"/>
</svg>
